<?xml version="1.0" encoding="UTF-8" standalone="no"?>
<svg
   xmlns:dc="http://purl.org/dc/elements/1.1/"
   xmlns:cc="http://creativecommons.org/ns#"
   xmlns:rdf="http://www.w3.org/1999/02/22-rdf-syntax-ns#"
   xmlns:svg="http://www.w3.org/2000/svg"
   xmlns="http://www.w3.org/2000/svg"
   xmlns:sodipodi="http://sodipodi.sourceforge.net/DTD/sodipodi-0.dtd"
   xmlns:inkscape="http://www.inkscape.org/namespaces/inkscape"
   width="100%"
   height="100%"
   viewBox="0 0 255 255"
   version="1.1"
   xml:space="preserve"
   style="fill-rule:evenodd;clip-rule:evenodd;stroke-linejoin:round;stroke-miterlimit:1.41421;"
   id="svg11"
   sodipodi:docname="bpmn-icon.svg"
   inkscape:version="0.92.2 (5c3e80d, 2017-08-06)"><metadata
     id="metadata17"><rdf:RDF><cc:Work
         rdf:about=""><dc:format>image/svg+xml</dc:format><dc:type
           rdf:resource="http://purl.org/dc/dcmitype/StillImage" /></cc:Work></rdf:RDF></metadata><defs
     id="defs15" /><sodipodi:namedview
     pagecolor="#ffffff"
     bordercolor="#666666"
     borderopacity="1"
     objecttolerance="10"
     gridtolerance="10"
     guidetolerance="10"
     inkscape:pageopacity="0"
     inkscape:pageshadow="2"
     inkscape:window-width="1920"
     inkscape:window-height="1052"
     id="namedview13"
     showgrid="false"
     inkscape:zoom="2.6176816"
     inkscape:cx="117.80824"
     inkscape:cy="117.62641"
     inkscape:window-x="1360"
     inkscape:window-y="0"
     inkscape:window-maximized="1"
     inkscape:current-layer="svg11" /><rect
     id="Admin-Center"
     x="0"
     y="0"
     width="255"
     height="255"
     style="fill:none;" /><g
     id="g6"><path
       d="M198.333,191.25l-141.666,0c-7.418,0 -14.167,-6.749 -14.167,-14.167l0,-99.166c0,-7.418 6.749,-14.167 14.167,-14.167l141.666,0c7.418,0 14.167,6.749 14.167,14.167l0,99.166c0,7.418 -6.749,14.167 -14.167,14.167Z"
       style="fill:#2196f3;"
       id="path3" /><path
       id="server"
       d="M77.841,85.417l61.818,0c2.134,0 3.864,1.729 3.864,3.863l0,15.455c0,2.134 -1.73,3.863 -3.864,3.863l-61.818,0c-2.134,0 -3.864,-1.729 -3.864,-3.863l0,-15.455c0,-2.134 1.73,-3.863 3.864,-3.863Zm0,30.909l61.818,0c2.134,0 3.864,1.73 3.864,3.863l0,15.455c0,2.134 -1.73,3.864 -3.864,3.864l-61.818,0c-2.134,0 -3.864,-1.73 -3.864,-3.864l0,-15.455c0,-2.133 1.73,-3.863 3.864,-3.863Zm0,30.909l61.818,0c2.134,0 3.864,1.73 3.864,3.863l0,15.455c0,2.134 -1.73,3.864 -3.864,3.864l-61.818,0c-2.134,0 -3.864,-1.73 -3.864,-3.864l0,-15.455c0,-2.133 1.73,-3.863 3.864,-3.863Zm19.318,-46.364l3.864,0l0,-7.727l-3.864,0l0,7.727Zm0,30.909l3.864,0l0,-7.727l-3.864,0l0,7.727Zm0,30.909l3.864,0l0,-7.727l-3.864,0l0,7.727Zm-15.454,-69.545l0,7.727l7.727,0l0,-7.727l-7.727,0Zm0,30.909l0,7.727l7.727,0l0,-7.727l-7.727,0Zm0,30.909l0,7.727l7.727,0l0,-7.727l-7.727,0Z"
       style="fill:#fff;fill-rule:nonzero;" /><path
       inkscape:connector-curvature="0"
       d="M 198.333,191.25 H 56.666997 c -7.418,0 -14.167,-6.749 -14.167,-14.167 V 77.917 c 0,-7.418 6.749,-14.167 14.167,-14.167 H 198.333 c 7.418,0 14.167,6.749 14.167,14.167 v 99.166 c 0,7.418 -6.749,14.167 -14.167,14.167 z"
       style="clip-rule:evenodd;fill:#2196f3;fill-rule:evenodd;stroke-linejoin:round;stroke-miterlimit:1.41420996"
       id="path3-6" /></g><path
     id="settings"
     d="m 93.376,145.264 c -6.577,0 -11.909,-5.332 -11.909,-11.909 0,-6.577 5.332,-11.91 11.909,-11.91 6.578,0 11.91,5.333 11.91,11.91 0,6.577 -5.332,11.909 -11.91,11.909 z m 25.279,-8.588 c 0.142,-1.092 0.238,-2.195 0.238,-3.321 0,-1.126 -0.096,-2.229 -0.238,-3.321 l 7.189,-5.628 c 0.64,-0.517 0.827,-1.436 0.402,-2.171 l -6.805,-11.787 c -0.422,-0.735 -1.314,-1.034 -2.083,-0.738 l -8.469,3.413 c -1.756,-1.348 -3.678,-2.488 -5.751,-3.345 l -1.276,-9.017 c -0.129,-0.81 -0.833,-1.433 -1.68,-1.433 H 86.571 c -0.851,0 -1.552,0.623 -1.681,1.433 l -1.276,9.013 c -2.076,0.861 -3.998,2.001 -5.754,3.349 l -8.466,-3.413 c -0.769,-0.296 -1.66,0.003 -2.082,0.738 l -6.806,11.787 c -0.425,0.735 -0.238,1.654 0.402,2.171 l 7.186,5.628 c -0.143,1.088 -0.238,2.195 -0.238,3.321 0,1.126 0.095,2.232 0.238,3.321 l -7.186,5.625 c -0.64,0.52 -0.827,1.438 -0.402,2.174 l 6.806,11.786 c 0.422,0.735 1.313,1.035 2.082,0.739 l 8.469,-3.413 c 1.756,1.347 3.679,2.487 5.751,3.345 l 1.276,9.017 c 0.129,0.81 0.83,1.432 1.681,1.432 h 13.611 c 0.847,0 1.551,-0.622 1.68,-1.432 l 1.276,-9.017 c 2.069,-0.861 3.992,-1.998 5.748,-3.348 l 8.472,3.416 c 0.769,0.296 1.661,-0.004 2.083,-0.739 l 6.805,-11.786 c 0.425,-0.736 0.238,-1.654 -0.402,-2.174 z"
     style="fill:#ffc107;fill-rule:nonzero"
     inkscape:connector-curvature="0" /><path
     style="fill:#ffc107;fill-rule:nonzero"
     d="m 156.37698,132.84745 c -6.577,0 -11.909,-5.332 -11.909,-11.909 0,-6.577 5.332,-11.91 11.909,-11.91 6.578,0 11.91,5.333 11.91,11.91 0,6.577 -5.332,11.909 -11.91,11.909 z m 25.279,-8.588 c 0.142,-1.092 0.238,-2.195 0.238,-3.321 0,-1.126 -0.096,-2.229 -0.238,-3.321 l 7.189,-5.628 c 0.64,-0.517 0.827,-1.436 0.402,-2.171 l -6.805,-11.787002 c -0.422,-0.735 -1.314,-1.034 -2.083,-0.738 l -8.469,3.413002 c -1.756,-1.348002 -3.678,-2.488002 -5.751,-3.345002 l -1.276,-9.016995 c -0.129,-0.81 -0.833,-1.433 -1.68,-1.433 h -13.611 c -0.851,0 -1.552,0.623 -1.681,1.433 l -1.276,9.012995 c -2.076,0.861 -3.998,2.001 -5.754,3.349002 l -8.466,-3.413002 c -0.769,-0.296 -1.66,0.003 -2.082,0.738 l -6.806,11.787002 c -0.425,0.735 -0.238,1.654 0.402,2.171 l 7.186,5.628 c -0.143,1.088 -0.238,2.195 -0.238,3.321 0,1.126 0.095,2.232 0.238,3.321 l -7.186,5.625 c -0.64,0.52 -0.827,1.438 -0.402,2.174 l 6.806,11.786 c 0.422,0.735 1.313,1.035 2.082,0.739 l 8.469,-3.413 c 1.756,1.347 3.679,2.487 5.751,3.345 l 1.276,9.017 c 0.129,0.81 0.83,1.432 1.681,1.432 h 13.611 c 0.847,0 1.551,-0.622 1.68,-1.432 l 1.276,-9.017 c 2.069,-0.861 3.992,-1.998 5.748,-3.348 l 8.472,3.416 c 0.769,0.296 1.661,-0.004 2.083,-0.739 l 6.805,-11.786 c 0.425,-0.736 0.238,-1.654 -0.402,-2.174 z"
     id="path824"
     inkscape:connector-curvature="0" /></svg>